<svg width="77" height="80" viewBox="0 0 77 80" fill="none" xmlns="http://www.w3.org/2000/svg">
<path fill-rule="evenodd" clip-rule="evenodd" d="M61.0243 8.75873C61.0216 8.67327 61.0202 8.58747 61.0202 8.50134C61.0202 4.09768 64.5901 0.527801 68.9937 0.527801C73.3974 0.527801 76.9673 4.09768 76.9673 8.50134C76.9673 8.58747 76.9659 8.67327 76.9632 8.75874L76.9671 8.75874C76.9671 18.3283 75.0323 27.799 71.279 36.6018C67.5257 45.4046 62.1988 53.4588 55.2937 60.0842C48.3886 66.7096 40.3621 71.8239 31.4117 75.2102C22.4613 78.5965 13.9041 80.5922 0.12685 79.8079L1.93417 63.8851C10.9708 64.3656 18.4721 62.6822 25.3883 60.0655C32.3045 57.4488 38.6203 53.4608 43.956 48.3412C49.2918 43.2216 53.5373 37.076 56.4376 30.2739C59.3379 23.4717 61.02 16.1534 61.02 8.75873L61.0243 8.75873Z" fill="#EE8484"/>
</svg>
