<svg width="104" height="143" viewBox="0 0 104 143" fill="none" xmlns="http://www.w3.org/2000/svg">
<path d="M88.3316 142.724C78.0556 141.873 67.8847 138.793 58.9196 133.699C49.9544 128.605 42.2066 121.619 36.215 113.227C30.2233 104.835 26.1317 95.239 24.2247 85.1056C22.3177 74.9722 22.7837 64.2245 25.3149 54.2288L40.7476 58.3441C38.7916 66.0681 38.6069 74.2913 40.0805 82.1216C41.5541 89.952 44.7158 97.3673 49.3457 103.852C53.9756 110.337 59.9626 115.735 66.8902 119.671C73.8178 123.607 81.6771 126.104 89.6177 126.762L88.3316 142.724Z" fill="#F6DC7D"/>
<path fill-rule="evenodd" clip-rule="evenodd" d="M29.6121 101.309C25.6633 92.5922 23.5177 83.167 23.3042 73.5998C23.0906 64.0327 24.6194 54.498 28.1753 45.6137C31.7313 36.7293 36.9323 28.7587 43.6878 21.9809C50.4434 15.203 57.4146 9.85414 70.2878 4.88355L75.2119 20.1333C66.7822 23.4245 60.644 28.0532 55.4238 33.2906C50.2036 38.528 46.0962 44.7668 43.3484 51.632C40.6007 58.4972 39.2693 65.847 39.4343 73.2398C39.5993 80.6326 41.0869 87.9929 44.1382 94.7287L44.135 94.7301C44.1726 94.8067 44.2092 94.884 44.2446 94.9623C46.0617 98.9736 44.283 103.698 40.2717 105.516C36.2605 107.333 31.5356 105.554 29.7185 101.543C29.683 101.464 29.649 101.386 29.6163 101.307L29.6121 101.309Z" fill="#F6DC7D"/>
<path fill-rule="evenodd" clip-rule="evenodd" d="M40.8138 58.4333C39.8691 61.763 36.814 64.209 33.1795 64.226C28.7759 64.2467 25.1893 60.6936 25.1687 56.29C25.1643 55.3419 25.3255 54.4317 25.6251 53.5869C29.5328 38.5955 38.1112 25.4126 50.3087 15.8268C62.7275 6.0671 78.0473 0.914775 93.8421 0.840749L93.9168 16.7877C81.7118 16.8449 69.8744 20.9708 60.2781 28.5124C50.6817 36.054 43.8095 46.6021 40.8688 58.4477L40.8138 58.4333Z" fill="#98D89E"/>
</svg>
