<svg width="104" height="143" viewBox="0 0 104 143" fill="none" xmlns="http://www.w3.org/2000/svg">
<path d="M88.3313 142.724C78.0553 141.873 67.8844 138.793 58.9193 133.699C49.9541 128.605 42.2063 121.619 36.2147 113.227C30.223 104.835 26.1314 95.239 24.2244 85.1056C22.3174 74.9722 22.7834 64.2245 25.3146 54.2288L40.7473 58.3441C38.7913 66.0681 38.6066 74.2913 40.0802 82.1216C41.5538 89.952 44.7155 97.3673 49.3454 103.852C53.9753 110.337 59.9623 115.735 66.8899 119.671C73.8175 123.607 81.6768 126.104 89.6174 126.762L88.3313 142.724Z" fill="#F6DC7D"/>
<path fill-rule="evenodd" clip-rule="evenodd" d="M29.6117 101.309C25.6629 92.5922 23.5173 83.167 23.3038 73.5998C23.0903 64.0327 24.619 54.498 28.175 45.6137C31.7309 36.7293 36.9319 28.7587 43.6875 21.9809C50.443 15.203 57.4142 9.85414 70.2875 4.88355L75.2115 20.1333C66.7819 23.4245 60.6436 28.0532 55.4234 33.2906C50.2032 38.528 46.0958 44.7668 43.3481 51.632C40.6003 58.4972 39.2689 65.847 39.4339 73.2398C39.5989 80.6326 41.0865 87.9929 44.1378 94.7287L44.1346 94.7301C44.1722 94.8067 44.2088 94.884 44.2442 94.9623C46.0614 98.9736 44.2826 103.698 40.2714 105.516C36.2601 107.333 31.5352 105.554 29.7181 101.543C29.6827 101.464 29.6486 101.386 29.6159 101.307L29.6117 101.309Z" fill="#F6DC7D"/>
<path fill-rule="evenodd" clip-rule="evenodd" d="M40.8137 58.4333C39.8689 61.763 36.8138 64.209 33.1793 64.226C28.7757 64.2467 25.1892 60.6936 25.1685 56.29C25.1641 55.3419 25.3253 54.4317 25.6249 53.5869C29.5326 38.5955 38.111 25.4126 50.3085 15.8268C62.7273 6.0671 78.0472 0.914775 93.8419 0.840749L93.9166 16.7877C81.7116 16.8449 69.8742 20.9708 60.2779 28.5124C50.6815 36.054 43.8093 46.6021 40.8686 58.4477L40.8137 58.4333Z" fill="#98D89E"/>
</svg>
