<svg width="80" height="142" viewBox="0 0 80 142" fill="none" xmlns="http://www.w3.org/2000/svg">
<path fill-rule="evenodd" clip-rule="evenodd" d="M8.93887 15.9445C8.85339 15.9472 8.76757 15.9485 8.68143 15.9485C4.27776 15.9485 0.707886 12.3787 0.707886 7.97501C0.707886 3.57134 4.27776 0.00146484 8.68143 0.00146484C8.76757 0.00146484 8.85339 0.00283076 8.93887 0.00554212V0.00146484C18.5084 0.00146484 27.9792 1.93624 36.782 5.68952C45.5848 9.44279 53.5379 14.9371 60.1633 21.8422C66.7887 28.7473 71.9496 36.9206 75.3359 45.871C78.7222 54.8214 80.2639 64.364 79.8685 73.9254C79.473 83.4867 77.1485 92.8695 73.0347 101.51C68.9208 110.15 63.1026 117.869 55.9296 124.203C48.7566 130.538 40.3769 135.357 31.2943 138.37C22.2116 141.384 12.3027 142.515 2.76588 141.725L4.56627 125.778C11.9357 126.388 19.1951 125.385 26.2135 123.057C33.2319 120.728 39.7071 117.005 45.2499 112.11C50.7926 107.215 55.2885 101.25 58.4674 94.5737C61.6463 87.8972 63.4425 80.6469 63.7481 73.2586C64.0537 65.8703 62.8623 58.4964 60.2457 51.5802C57.629 44.664 53.641 38.3483 48.5214 33.0125C43.4017 27.6768 37.2562 23.4312 30.454 20.5309C23.6518 17.6307 16.3335 15.9485 8.93887 15.9485V15.9445Z" fill="#98D89E"/>
</svg>
