<svg width="80" height="142" viewBox="0 0 80 142" fill="none" xmlns="http://www.w3.org/2000/svg">
<path fill-rule="evenodd" clip-rule="evenodd" d="M8.93899 15.9445C8.85351 15.9472 8.76769 15.9485 8.68155 15.9485C4.27788 15.9485 0.708008 12.3787 0.708008 7.97501C0.708008 3.57134 4.27788 0.00146484 8.68155 0.00146484C8.76769 0.00146484 8.85351 0.00283076 8.93899 0.00554212V0.00146484C18.5085 0.00146484 27.9793 1.93624 36.7821 5.68952C45.5849 9.44279 53.538 14.9371 60.1634 21.8422C66.7888 28.7473 71.9497 36.9206 75.336 45.871C78.7223 54.8214 80.264 64.364 79.8686 73.9254C79.4731 83.4867 77.1486 92.8695 73.0348 101.51C68.9209 110.15 63.1027 117.869 55.9297 124.203C48.7567 130.538 40.3771 135.357 31.2944 138.37C22.2117 141.384 12.3029 142.515 2.766 141.725L4.5664 125.778C11.9358 126.388 19.1952 125.385 26.2136 123.057C33.232 120.728 39.7072 117.005 45.25 112.11C50.7927 107.215 55.2887 101.25 58.4675 94.5737C61.6464 87.8972 63.4426 80.6469 63.7482 73.2586C64.0538 65.8703 62.8625 58.4964 60.2458 51.5802C57.6291 44.664 53.6411 38.3483 48.5215 33.0125C43.4018 27.6768 37.2563 23.4312 30.4541 20.5309C23.652 17.6307 16.3336 15.9485 8.93899 15.9485V15.9445Z" fill="#98D89E"/>
</svg>
