<svg width="104" height="143" viewBox="0 0 104 143" fill="none" xmlns="http://www.w3.org/2000/svg">
<path d="M88.3318 142.724C78.0558 141.873 67.8849 138.793 58.9197 133.699C49.9546 128.605 42.2068 121.619 36.2151 113.227C30.2235 104.835 26.1319 95.239 24.2249 85.1056C22.3179 74.9722 22.7838 64.2245 25.3151 54.2288L40.7478 58.3441C38.7918 66.0681 38.6071 74.2913 40.0807 82.1216C41.5543 89.952 44.716 97.3673 49.3459 103.852C53.9758 110.337 59.9628 115.735 66.8904 119.671C73.818 123.607 81.6773 126.104 89.6179 126.762L88.3318 142.724Z" fill="#F6DC7D"/>
<path fill-rule="evenodd" clip-rule="evenodd" d="M29.6122 101.309C25.6634 92.5922 23.5178 83.167 23.3043 73.5998C23.0908 64.0327 24.6195 54.498 28.1755 45.6137C31.7314 36.7293 36.9324 28.7587 43.6879 21.9809C50.4435 15.203 57.4147 9.85414 70.288 4.88355L75.212 20.1333C66.7824 23.4245 60.6441 28.0532 55.4239 33.2906C50.2037 38.528 46.0963 44.7668 43.3486 51.632C40.6008 58.4972 39.2694 65.847 39.4344 73.2398C39.5994 80.6326 41.087 87.9929 44.1383 94.7287L44.1351 94.7301C44.1727 94.8067 44.2093 94.884 44.2447 94.9623C46.0618 98.9736 44.2831 103.698 40.2719 105.516C36.2606 107.333 31.5357 105.554 29.7186 101.543C29.6832 101.464 29.6491 101.386 29.6164 101.307L29.6122 101.309Z" fill="#F6DC7D"/>
<path fill-rule="evenodd" clip-rule="evenodd" d="M40.8139 58.4333C39.8691 61.763 36.814 64.209 33.1796 64.226C28.776 64.2467 25.1894 60.6936 25.1688 56.29C25.1643 55.3419 25.3255 54.4317 25.6252 53.5869C29.5328 38.5955 38.1113 25.4126 50.3088 15.8268C62.7275 6.0671 78.0474 0.914775 93.8421 0.840749L93.9168 16.7877C81.7118 16.8449 69.8745 20.9708 60.2781 28.5124C50.6818 36.054 43.8096 46.6021 40.8689 58.4477L40.8139 58.4333Z" fill="#98D89E"/>
</svg>
