<svg width="78" height="78" viewBox="0 0 78 78" fill="none" xmlns="http://www.w3.org/2000/svg">
<circle cx="39.0002" cy="39" r="37.8918" fill="#F5F5F5" stroke="#F2F2F2"/>
<path fill-rule="evenodd" clip-rule="evenodd" d="M39.0001 23.0049C39.8836 23.0049 40.5998 23.7211 40.5998 24.6046L40.5999 37.7097L53.7049 37.7096C54.5884 37.7096 55.3046 38.4258 55.3046 39.3093C55.3046 40.1927 54.5884 40.9089 53.7049 40.9089L40.5999 40.909L40.5999 54.0139C40.5999 54.8974 39.8838 55.6136 39.0003 55.6136C38.1168 55.6136 37.4006 54.8974 37.4006 54.0139L37.4006 40.909L24.2955 40.9089C23.412 40.9089 22.6958 40.1927 22.6958 39.3092C22.6958 38.4258 23.412 37.7096 24.2955 37.7096L37.4005 37.7097L37.4005 24.6046C37.4005 23.7211 38.1166 23.0049 39.0001 23.0049Z" fill="#999CA0"/>
</svg>
