<svg width="5" height="7" viewBox="0 0 5 7" fill="none" xmlns="http://www.w3.org/2000/svg">
<path d="M0.255719 6.08574C-0.0722496 5.88747 -0.097987 5.61143 0.255719 5.36905L3.0111 3.59186L0.255719 1.81468C-0.0979873 1.5723 -0.0722499 1.2958 0.255719 1.0989C0.582952 0.900622 1.13594 0.913355 1.44332 1.0989C1.7507 1.28353 4.75389 3.23397 4.75389 3.23397C4.83173 3.28042 4.89364 3.33608 4.93592 3.39765C4.97821 3.45922 5 3.52543 5 3.59232C5 3.65921 4.97821 3.72541 4.93592 3.78698C4.89364 3.84855 4.83173 3.90422 4.75389 3.95066C4.75389 3.95066 1.7507 5.9002 1.44332 6.08574C1.13594 6.27173 0.582952 6.28401 0.255719 6.08574Z" fill="#858585"/>
</svg>
