<svg width="20" height="18" viewBox="0 0 20 18" fill="none" xmlns="http://www.w3.org/2000/svg">
<path d="M9.75416 8.76686C9.25082 8.76686 8.75877 8.91856 8.34025 9.20277C7.92174 9.48699 7.59554 9.89095 7.40292 10.3636C7.2103 10.8362 7.1599 11.3563 7.25809 11.858C7.35629 12.3598 7.59868 12.8206 7.9546 13.1824C8.31052 13.5441 8.76399 13.7905 9.25766 13.8903C9.75134 13.9901 10.263 13.9388 10.7281 13.7431C11.1931 13.5473 11.5906 13.2158 11.8702 12.7904C12.1499 12.3651 12.2991 11.865 12.2991 11.3534C12.2991 10.6674 12.031 10.0095 11.5537 9.52444C11.0765 9.03937 10.4291 8.76686 9.75416 8.76686ZM9.75416 12.2156C9.58638 12.2156 9.42237 12.165 9.28286 12.0703C9.14335 11.9756 9.03462 11.8409 8.97042 11.6834C8.90621 11.5258 8.88941 11.3525 8.92214 11.1852C8.95487 11.018 9.03567 10.8643 9.15431 10.7438C9.27295 10.6232 9.42411 10.5411 9.58866 10.5078C9.75322 10.4745 9.92379 10.4916 10.0788 10.5569C10.2338 10.6221 10.3663 10.7326 10.4595 10.8744C10.5527 11.0162 10.6025 11.1829 10.6025 11.3534C10.6025 11.5821 10.5131 11.8014 10.354 11.9631C10.1949 12.1248 9.97915 12.2156 9.75416 12.2156ZM9.15185 6.79246C9.23253 6.87095 9.32767 6.93248 9.4318 6.97352C9.53335 7.01913 9.64314 7.04269 9.75416 7.04269C9.86518 7.04269 9.97498 7.01913 10.0765 6.97352C10.1807 6.93248 10.2758 6.87095 10.3565 6.79246L12.2991 4.85255C12.4634 4.68562 12.5556 4.45922 12.5556 4.22315C12.5556 3.98708 12.4634 3.76068 12.2991 3.59376C12.1349 3.42683 11.9121 3.33305 11.6799 3.33305C11.4476 3.33305 11.2248 3.42683 11.0606 3.59376L10.6025 4.10244V1.0072C10.6025 0.778538 10.5131 0.559238 10.354 0.397547C10.1949 0.235856 9.97915 0.14502 9.75416 0.14502C9.52917 0.14502 9.3134 0.235856 9.15431 0.397547C8.99522 0.559238 8.90584 0.778538 8.90584 1.0072V4.10244L8.44775 3.59376C8.2835 3.42683 8.06074 3.33305 7.82847 3.33305C7.5962 3.33305 7.37344 3.42683 7.20919 3.59376C7.04495 3.76068 6.95268 3.98708 6.95268 4.22315C6.95268 4.45922 7.04495 4.68562 7.20919 4.85255L9.15185 6.79246ZM15.6924 11.3534C15.6924 11.1829 15.6427 11.0162 15.5495 10.8744C15.4562 10.7326 15.3238 10.6221 15.1687 10.5569C15.0137 10.4916 14.8432 10.4745 14.6786 10.5078C14.514 10.5411 14.3629 10.6232 14.2442 10.7438C14.1256 10.8643 14.0448 11.018 14.0121 11.1852C13.9793 11.3525 13.9961 11.5258 14.0604 11.6834C14.1246 11.8409 14.2333 11.9756 14.3728 12.0703C14.5123 12.165 14.6763 12.2156 14.8441 12.2156C15.0691 12.2156 15.2849 12.1248 15.444 11.9631C15.6031 11.8014 15.6924 11.5821 15.6924 11.3534ZM16.5408 5.31812H13.9958C13.7708 5.31812 13.555 5.40896 13.3959 5.57065C13.2368 5.73234 13.1475 5.95164 13.1475 6.18031C13.1475 6.40897 13.2368 6.62827 13.3959 6.78996C13.555 6.95166 13.7708 7.04249 13.9958 7.04249H16.5408C16.7657 7.04249 16.9815 7.13333 17.1406 7.29502C17.2997 7.45671 17.3891 7.67601 17.3891 7.90468V14.8022C17.3891 15.0308 17.2997 15.2501 17.1406 15.4118C16.9815 15.5735 16.7657 15.6643 16.5408 15.6643H2.96758C2.74259 15.6643 2.52681 15.5735 2.36772 15.4118C2.20863 15.2501 2.11925 15.0308 2.11925 14.8022V7.90468C2.11925 7.67601 2.20863 7.45671 2.36772 7.29502C2.52681 7.13333 2.74259 7.04249 2.96758 7.04249H5.51255C5.73754 7.04249 5.95331 6.95166 6.1124 6.78996C6.27149 6.62827 6.36087 6.40897 6.36087 6.18031C6.36087 5.95164 6.27149 5.73234 6.1124 5.57065C5.95331 5.40896 5.73754 5.31812 5.51255 5.31812H2.96758C2.29261 5.31812 1.64529 5.59064 1.16801 6.07571C0.690737 6.56078 0.422607 7.21868 0.422607 7.90468V14.8022C0.422607 15.4881 0.690737 16.146 1.16801 16.6311C1.64529 17.1162 2.29261 17.3887 2.96758 17.3887H16.5408C17.2157 17.3887 17.863 17.1162 18.3403 16.6311C18.8176 16.146 19.0857 15.4881 19.0857 14.8022V7.90468C19.0857 7.21868 18.8176 6.56078 18.3403 6.07571C17.863 5.59064 17.2157 5.31812 16.5408 5.31812ZM3.8159 11.3534C3.8159 11.5239 3.86565 11.6906 3.95887 11.8324C4.05208 11.9742 4.18457 12.0847 4.33958 12.15C4.4946 12.2152 4.66516 12.2323 4.82972 12.199C4.99428 12.1658 5.14544 12.0836 5.26408 11.9631C5.38272 11.8425 5.46351 11.6889 5.49625 11.5216C5.52898 11.3544 5.51218 11.181 5.44797 11.0235C5.38376 10.8659 5.27503 10.7313 5.13553 10.6365C4.99602 10.5418 4.83201 10.4912 4.66422 10.4912C4.43923 10.4912 4.22346 10.5821 4.06437 10.7438C3.90528 10.9054 3.8159 11.1247 3.8159 11.3534Z" fill="white"/>
</svg>
