<svg width="19" height="22" viewBox="0 0 19 22" fill="none" xmlns="http://www.w3.org/2000/svg">
<path d="M16.3862 12.6564V8.91122C16.3862 5.55139 14.2012 2.72107 11.2412 1.86988C10.9482 1.09912 10.2322 0.55603 9.38623 0.55603C8.54023 0.55603 7.82423 1.09912 7.53123 1.86988C4.57123 2.72211 2.38623 5.55139 2.38623 8.91122V12.6564L0.679231 14.4392C0.586189 14.536 0.512401 14.6511 0.462116 14.7778C0.411831 14.9046 0.386041 15.0404 0.386232 15.1776V17.2664C0.386232 17.5434 0.491588 17.809 0.679125 18.0049C0.866661 18.2008 1.12102 18.3108 1.38623 18.3108H17.3862C17.6514 18.3108 17.9058 18.2008 18.0933 18.0049C18.2809 17.809 18.3862 17.5434 18.3862 17.2664V15.1776C18.3864 15.0404 18.3606 14.9046 18.3103 14.7778C18.2601 14.6511 18.1863 14.536 18.0932 14.4392L16.3862 12.6564ZM16.3862 16.222H2.38623V15.61L4.09323 13.8272C4.18627 13.7304 4.26006 13.6153 4.31035 13.4886C4.36063 13.3618 4.38642 13.226 4.38623 13.0888V8.91122C4.38623 6.03181 6.62923 3.68923 9.38623 3.68923C12.1432 3.68923 14.3862 6.03181 14.3862 8.91122V13.0888C14.3862 13.3666 14.4912 13.6319 14.6792 13.8272L16.3862 15.61V16.222ZM9.38623 21.444C10.0055 21.4448 10.6097 21.2441 11.1147 20.8697C11.6198 20.4954 12.0006 19.966 12.2042 19.3552H6.56823C6.77189 19.966 7.15271 20.4954 7.65774 20.8697C8.16277 21.2441 8.76693 21.4448 9.38623 21.444Z" fill="black"/>
</svg>
